<svg width="1024" height="1024" viewBox="0 0 1024 1024" fill="none" xmlns="http://www.w3.org/2000/svg">
<path d="M181.142 145H841.508C860.192 145 875 162.502 875 184.588C875 206.257 860.192 223.759 841.508 223.759H181.142C162.455 223.759 148 206.257 148 184.588C148 162.919 162.455 145 181.142 145ZM181.142 362.942H841.508C860.192 362.942 875 380.861 875 402.53C875 424.616 860.192 442.118 841.508 442.118H181.142C162.455 442.118 148 424.199 148 402.53C148 380.861 162.455 362.942 181.142 362.942ZM335.921 827.997V775.907H240.374C184.315 775.907 153.641 741.32 153.641 677.979V599.637C153.641 572.55 170.917 552.965 192.777 552.965C214.283 552.965 231.559 573.384 231.559 598.387V663.394C231.559 676.312 237.906 683.396 248.835 683.396H335.921V627.14C335.921 597.136 359.19 583.801 379.992 602.97L488.584 702.565C503.039 715.9 502.687 739.653 488.584 752.988L379.992 853C358.838 871.756 335.921 858.414 335.921 827.997ZM596.823 580.885H841.508C860.192 580.885 875 598.803 875 620.473C875 642.558 860.192 660.061 841.508 660.061H596.823C578.137 660.061 563.681 642.558 563.681 620.473C563.681 598.803 578.49 580.885 596.823 580.885ZM596.823 799.244H841.508C860.192 799.244 875 816.746 875 838.832C875 860.498 860.192 878 841.508 878H596.823C578.137 878 563.681 860.498 563.681 838.832C563.681 817.162 578.49 799.244 596.823 799.244Z" fill="url(#paint0_linear_1_3)"/>
<defs>
<linearGradient id="paint0_linear_1_3" x1="148" y1="145" x2="880.975" y2="871.975" gradientUnits="userSpaceOnUse">
<stop stop-color="#FF6BCB"/>
<stop offset="0.25" stop-color="#5E5ADB"/>
<stop offset="0.5" stop-color="#32D6FF"/>
<stop offset="0.75" stop-color="#FF9F0A"/>
<stop offset="1" stop-color="#FF6BCB" stop-opacity="0.6"/>
</linearGradient>
</defs>
</svg>
